<svg xmlns="http://www.w3.org/2000/svg" version="1.1" xmlns:xlink="http://www.w3.org/1999/xlink" xmlns:svgjs="http://svgjs.com/svgjs" width="512" height="512" x="0" y="0" viewBox="0 0 128 128" style="enable-background:new 0 0 512 512" xml:space="preserve" class=""><g><path fill="#FFFFFF" d="M69 124H22.5c-3.1 0-5.7-2.4-6-5.5L9 24h68z" data-original="#ffffff" class=""></path><path fill="#FFFFFF" d="M37 86h80c3.9 0 7 3.1 7 7s-3.1 7-7 7h-7.1c-1.9 0-3.6.7-4.9 2.1l-8 8c-2.7 2.7-7.2 2.7-9.9 0l-8-8c-1.3-1.3-3.1-2.1-4.9-2.1H37c-3.9 0-7-3.1-7-7s3.1-7 7-7z" data-original="#ffffff" class=""></path><path fill="#FAF9F6" d="M37 100v14c0 6.9 4.5 9.6 14.9 10h51.3c9.6-.5 13.9-3.3 13.9-10v-14h-10l-10.7 10.7c-2.3 2.4-6.2 2.4-8.5 0L77.2 100H37z" data-original="#fff3c2" class=""></path><path fill="#008B8B" d="M103.1 124c9.6-.5 13.9-3.3 13.9-10v-14h-10l-10.7 10.7c-2.3 2.4-6.2 2.4-8.5 0L77.1 100H60v24z" data-original="#f98869" class=""></path><path fill="#FAF9F6" d="M117 72c0-11-11.6-29-40-29S37 61 37 72v4c0 5.5 4.5 10 10 10h70z" data-original="#fff3c2" class=""></path><path fill="#008B8B" d="M77.5 71h-10c-4.1 0-7.5 3.4-7.5 7.5V86h57V72c0-4.7-2.1-10.7-6.8-16H92.5c-4.1 0-7.5 3.4-7.5 7.5S81.6 71 77.5 71z" data-original="#f98869" class=""></path><path fill="#FFFFFF" d="m69 4-9.2 20" data-original="#ffffff" class=""></path><path fill="#444B54" d="M79 21H64.5l7.2-15.8c.7-1.5 0-3.3-1.5-4s-3.3 0-4 1.5L57.9 21H4c-1.7 0-3 1.3-3 3s1.3 3 3 3h2.2l7.4 92.6c.3 4.1 3.8 7.4 8 7.4H26c1.7 0 3-1.3 3-3s-1.3-3-3-3h-4.4c-1 0-1.9-.8-2-1.8L12.2 27H79c1.7 0 3-1.3 3-3s-1.3-3-3-3z" data-original="#444b54" class=""></path><path fill="#444B54" d="M103.1 127H51.8c-8.3-.3-17.8-2-17.8-13v-14c0-1.7 1.3-3 3-3h37.1c2.7 0 5.2 1 7.1 2.9l8 8c1.6 1.6 4.1 1.6 5.7 0l8-8c1.9-1.9 4.4-2.9 7.1-2.9h7.1c2.2 0 4-1.8 4-4s-1.8-4-4-4H47c-7.2 0-13-5.8-13-13v-4c0-13.3 13.3-32 43-32s43 18.7 43 32c0 1.7-1.3 3-3 3s-3-1.3-3-3c0-8.5-9-26-37-26S40 63.5 40 72v4c0 3.9 3.1 7 7 7h70c5.5 0 10 4.5 10 10s-4.5 10-10 10h-7.1c-1.1 0-2.1.4-2.8 1.2l-8 8c-3.9 3.9-10.2 3.9-14.1 0l-8-8c-.8-.8-1.8-1.2-2.8-1.2H40v11c0 3.6.9 6.6 11.9 7H103c10.1-.5 10.9-3.6 10.9-7 0-1.7 1.3-3 3-3s3 1.3 3 3c0 10.9-9.6 12.7-16.7 13h-.1z" data-original="#444b54" class=""></path><circle cx="64" cy="60" r="4" fill="#008B8B" data-original="#f98869" class=""></circle></g></svg>